<svg width="116" height="116" viewBox="0 0 116 116" fill="none" xmlns="http://www.w3.org/2000/svg">
<path d="M102.996 49.3435C103.587 52.507 103.908 55.8144 103.908 59.2659C103.908 86.2631 85.8399 105.46 58.5499 105.46C52.3438 105.462 46.1981 104.241 40.464 101.867C34.73 99.4924 29.5199 96.0117 25.1315 91.6233C20.7432 87.235 17.2625 82.0249 14.8884 76.2908C12.5143 70.5568 11.2933 64.4111 11.2952 58.205C11.2933 51.9989 12.5143 45.8532 14.8884 40.1192C17.2625 34.3851 20.7432 29.175 25.1315 24.7867C29.5199 20.3983 34.73 16.9176 40.464 14.5435C46.1981 12.1694 52.3438 10.9484 58.5499 10.9503C71.3092 10.9503 81.9708 15.645 90.1506 23.268L76.8296 36.589V36.5554C71.8709 31.8318 65.5776 29.4077 58.5499 29.4077C42.9583 29.4077 30.2854 42.5798 30.2854 58.1762C30.2854 73.7678 42.9583 86.9687 58.5499 86.9687C72.6965 86.9687 82.3261 78.8801 84.3038 67.7721H58.5499V49.3435H103.001H102.996Z" fill="#242635"/>
</svg>
