<svg width="58" height="58" viewBox="0 0 58 58" fill="none" xmlns="http://www.w3.org/2000/svg">
<path d="M49.8438 6.34375H8.15625C7.15371 6.34375 6.34375 7.15371 6.34375 8.15625V49.8438C6.34375 50.8463 7.15371 51.6562 8.15625 51.6562H49.8438C50.8463 51.6562 51.6562 50.8463 51.6562 49.8438V8.15625C51.6562 7.15371 50.8463 6.34375 49.8438 6.34375ZM20.8438 42.1406C20.8438 42.3898 20.6398 42.5938 20.3906 42.5938H15.8594C15.6102 42.5938 15.4062 42.3898 15.4062 42.1406V15.8594C15.4062 15.6102 15.6102 15.4062 15.8594 15.4062H20.3906C20.6398 15.4062 20.8438 15.6102 20.8438 15.8594V42.1406ZM31.7188 26.2812C31.7188 26.5305 31.5148 26.7344 31.2656 26.7344H26.7344C26.4852 26.7344 26.2812 26.5305 26.2812 26.2812V15.8594C26.2812 15.6102 26.4852 15.4062 26.7344 15.4062H31.2656C31.5148 15.4062 31.7188 15.6102 31.7188 15.8594V26.2812ZM42.5938 30.3594C42.5938 30.6086 42.3898 30.8125 42.1406 30.8125H37.6094C37.3602 30.8125 37.1562 30.6086 37.1562 30.3594V15.8594C37.1562 15.6102 37.3602 15.4062 37.6094 15.4062H42.1406C42.3898 15.4062 42.5938 15.6102 42.5938 15.8594V30.3594Z" fill="#423F40"/>
</svg>
