<svg width="74" height="74" viewBox="0 0 74 74" fill="none" xmlns="http://www.w3.org/2000/svg">
<path d="M21.5834 40.0833H9.25008C7.55425 40.0833 6.16675 38.6958 6.16675 37C6.16675 35.3042 7.55425 33.9167 9.25008 33.9167H21.5834C23.2792 33.9167 24.6667 35.3042 24.6667 37C24.6667 38.6958 23.2792 40.0833 21.5834 40.0833ZM18.5001 24.6667C18.5001 22.9708 17.1126 21.5833 15.4167 21.5833H12.3334C10.6376 21.5833 9.25008 22.9708 9.25008 24.6667C9.25008 26.3625 10.6376 27.75 12.3334 27.75H15.4167C17.1126 27.75 18.5001 26.3625 18.5001 24.6667ZM67.8334 37C67.8334 45.51 60.9268 52.4167 52.4168 52.4167H12.3334C10.6376 52.4167 9.25008 51.0292 9.25008 49.3333C9.25008 47.6375 10.6376 46.25 12.3334 46.25H40.0834C38.7884 44.4617 37.7709 42.365 37.3084 40.0833H30.8334C29.1376 40.0833 27.7501 38.6958 27.7501 37C27.7501 35.3042 29.1376 33.9167 30.8334 33.9167H37.3084C37.7709 31.635 38.7884 29.5383 40.0834 27.75H24.6667C22.9709 27.75 21.5834 26.3625 21.5834 24.6667C21.5834 22.9708 22.9709 21.5833 24.6667 21.5833H52.4168C60.9268 21.5833 67.8334 28.49 67.8334 37Z" fill="#423F40"/>
</svg>
