<svg width="57" height="57" viewBox="0 0 57 57" fill="none" xmlns="http://www.w3.org/2000/svg">
<path d="M49.875 28.5C49.875 23.6788 48.2837 19.2138 45.125 15.1525V41.8712C48.2837 37.9287 49.875 33.4637 49.875 28.5ZM41.8712 45.125H15.1525C16.7675 46.4313 18.8813 47.5 21.4937 48.4738C24.0825 49.4 26.4338 49.875 28.5 49.875C30.59 49.875 32.9175 49.4 35.5062 48.4738C38.1187 47.5 40.2325 46.4313 41.8712 45.125ZM26.125 40.375L16.625 21.375V40.375H26.125ZM40.375 21.375L30.875 40.375H40.375V21.375ZM28.5 34.5088L37.4062 16.625H19.5938L28.5 34.5088ZM41.8712 11.875C37.9287 8.71625 33.4637 7.125 28.5 7.125C23.5363 7.125 19.0713 8.71625 15.1525 11.875H41.8712ZM11.875 41.8712V15.1525C8.71625 19.2138 7.125 23.6788 7.125 28.5C7.125 33.4637 8.71625 37.9287 11.875 41.8712ZM54.625 28.5C54.625 35.6963 52.1075 41.8713 46.9775 46.9775C41.8713 52.1075 35.6963 54.625 28.5 54.625C21.3038 54.625 15.1525 52.1075 10.0225 46.9775C4.8925 41.8713 2.375 35.6963 2.375 28.5C2.375 21.3038 4.8925 15.1525 10.0225 10.0225C15.1525 4.8925 21.3038 2.375 28.5 2.375C35.6963 2.375 41.8713 4.8925 46.9775 10.0225C52.1075 15.1525 54.625 21.3038 54.625 28.5Z" fill="#423F40"/>
</svg>
